<svg width="217" height="46" viewBox="0 0 217 46" fill="none" xmlns="http://www.w3.org/2000/svg">
<path d="M0 23C0 10.2975 10.2975 0 23 0H148.084C152.149 0 156.139 1.0866 159.642 3.14724C166.444 7.14867 174.833 7.34687 181.816 3.67117L183.945 2.55113C187.128 0.875572 190.672 0 194.269 0C205.798 0 215.403 8.83755 216.361 20.327L216.424 21.09C216.53 22.3611 216.53 23.6389 216.424 24.91L216.361 25.673C215.403 37.1625 205.798 46 194.269 46C190.672 46 187.128 45.1244 183.945 43.4489L181.816 42.3288C174.833 38.6531 166.444 38.8513 159.642 42.8528C156.139 44.9134 152.149 46 148.084 46H23C10.2975 46 0 35.7025 0 23Z" fill="#3191FF"/>
</svg>
